CddbId:0f0ffa15:[150, 11687, 23236, 48395, 79169, 102874, 122712, 138463, 153248, 162083, 181531, 195194, 204835, 228567, 232082, 245012, 249776, 260533, 262738, 277893, 291355]:306900:74:0f0ffa15 21 150 11687 23236 48395 79169 102874 122712 138463 153248 162083 181531 195194 204835 228567 232082 245012 249776 260533 262738 277893 291355 4092: 21 0 0 0 0 0 0 0 0 0 0 0 0 0 0 0 0 0 0 0 0 0 4092
num_tracks: 21
offsets: [150, 11687, 23236, 48395, 79169, 102874, 122712, 138463, 153248, 162083, 181531, 195194, 204835, 228567, 232082, 245012, 249776, 260533, 262738, 277893, 291355]
extents: [0, 0, 0, 0, 0, 0, 0, 0, 0, 0, 0, 0, 0, 0, 0, 0, 0, 0, 0, 0, 0]
total_length: 4092
cddb: [252705301, 21, 150, 11687, 23236, 48395, 79169, 102874, 122712, 138463, 153248, 162083, 181531, 195194, 204835, 228567, 232082, 245012, 249776, 260533, 262738, 277893, 291355, 4092]
musicbrainz: ('21 150 11687 23236 48395 79169 102874 122712 138463 153248 162083 181531 195194 204835 228567 232082 245012 249776 260533 262738 277893 291355 306904', 'MhwSkHh9DaDynF8BUncnmX8ZBds-')

CD record:
Device type    : Removable CD-ROM
Version        : 0
Response Format: 2
Capabilities   : 
Vendor_info    : 'MATSHITA'
Identification : 'BD-MLT UJ240AS  '
Revision       : '1.00'
Device seems to be: Generic mmc2 DVD-R/DVD-RW.
Using generic SCSI-3/mmc   CD-R/CD-RW driver (mmc_cdr).
Driver flags   : MMC-3 SWABAUDIO BURNFREE 
Supported modes: TAO PACKET SAO RAW/R16 RAW/R96P RAW/R96R
first: 1 last 21
track:   1 lba:         0 (        0) 00:02:00 adr: 1 control: 0 mode: 0
track:   2 lba:     11537 (    46148) 02:35:62 adr: 1 control: 0 mode: 0
track:   3 lba:     23086 (    92344) 05:09:61 adr: 1 control: 0 mode: 0
track:   4 lba:     48245 (   192980) 10:45:20 adr: 1 control: 0 mode: 0
track:   5 lba:     79019 (   316076) 17:35:44 adr: 1 control: 0 mode: 0
track:   6 lba:    102724 (   410896) 22:51:49 adr: 1 control: 0 mode: 0
track:   7 lba:    122562 (   490248) 27:16:12 adr: 1 control: 0 mode: 0
track:   8 lba:    138313 (   553252) 30:46:13 adr: 1 control: 0 mode: 0
track:   9 lba:    153098 (   612392) 34:03:23 adr: 1 control: 0 mode: 0
track:  10 lba:    161933 (   647732) 36:01:08 adr: 1 control: 0 mode: 0
track:  11 lba:    181381 (   725524) 40:20:31 adr: 1 control: 0 mode: 0
track:  12 lba:    195044 (   780176) 43:22:44 adr: 1 control: 0 mode: 0
track:  13 lba:    204685 (   818740) 45:31:10 adr: 1 control: 0 mode: 0
track:  14 lba:    228417 (   913668) 50:47:42 adr: 1 control: 0 mode: 0
track:  15 lba:    231932 (   927728) 51:34:32 adr: 1 control: 0 mode: 0
track:  16 lba:    244862 (   979448) 54:26:62 adr: 1 control: 0 mode: 0
track:  17 lba:    249626 (   998504) 55:30:26 adr: 1 control: 0 mode: 0
track:  18 lba:    260383 (  1041532) 57:53:58 adr: 1 control: 0 mode: 0
track:  19 lba:    262588 (  1050352) 58:23:13 adr: 1 control: 0 mode: 0
track:  20 lba:    277743 (  1110972) 61:45:18 adr: 1 control: 0 mode: 0
track:  21 lba:    291205 (  1164820) 64:44:55 adr: 1 control: 0 mode: 0
track:lout lba:    306754 (  1227016) 68:12:04 adr: 1 control: 0 mode: -1
